<?xml version="1.0" encoding="utf-8"?>
<!-- Generator: Adobe Illustrator 19.0.0, SVG Export Plug-In . SVG Version: 6.00 Build 0)  -->
<svg version="1.1" id="Layer_1" xmlns="http://www.w3.org/2000/svg" xmlns:xlink="http://www.w3.org/1999/xlink" x="0px" y="0px"
	 viewBox="0 0 218.1 345.9" style="enable-background:new 0 0 218.1 345.9;" xml:space="preserve">
<style type="text/css">
	.st0{fill:#49498C;}
	.st1{display:none;opacity:0.55;fill:#49498B;}
	.st2{font-family:'JosefinSans-Bold';}
	.st3{font-size:88.2825px;}
	.st4{fill:#3B8383;}
	.st5{fill:#49498B;}
	.st6{display:none;}
	.st7{display:inline;fill:#49498B;}
	.st8{display:inline;}
</style>
<g id="XMLID_248_">
	<g id="XMLID_98_">
		<path id="XMLID_108_" class="st0" d="M29,345.5c-0.1-0.3-0.3-0.7-0.6-1.4c-0.3-0.7-0.6-1.5-1-2.4c-0.4-0.9-0.8-2-1.3-3.1
			c-0.5-1.1-1-2.3-1.5-3.6H10.9l-4.4,10.5H0c0.1-0.3,0.5-1.1,1-2.4c0.5-1.3,1.2-2.9,2-4.8c0.8-1.9,1.7-4,2.7-6.4
			c1-2.3,2-4.7,3.1-7.2c1.1-2.4,2.1-4.8,3.1-7.2c1-2.3,1.9-4.5,2.7-6.4c0.8-1.9,1.5-3.5,2-4.8s0.9-2.1,1-2.4
			c0.1,0.3,0.5,1.1,1.1,2.4c0.6,1.3,1.3,2.9,2.1,4.8c0.8,1.9,1.7,4,2.7,6.4c1,2.3,2,4.7,3.1,7.2c1.1,2.4,2.1,4.8,3.1,7.2
			c1,2.3,1.9,4.5,2.7,6.4c0.8,1.9,1.5,3.5,2,4.8c0.5,1.3,0.9,2.1,1,2.4H29z M13.2,329.4h9l-3.9-9.5c0,0-0.1-0.3-0.3-0.7
			c-0.1-0.5-0.3-0.9-0.3-1.2c-0.1,0.4-0.2,0.8-0.3,1.2c-0.1,0.5-0.2,0.7-0.2,0.7L13.2,329.4z"/>
		<path id="XMLID_106_" class="st0" d="M59.1,325.1c-0.1-0.2-0.5-0.8-1.2-1.7c-0.6-1-1.4-2.2-2.3-3.5c-0.9-1.4-1.8-2.9-2.8-4.4
			c-1-1.6-2-3-2.8-4.4c-0.9-1.4-1.6-2.5-2.3-3.5c-0.6-1-1-1.6-1.1-1.8h8.2c0.1,0.2,0.4,0.6,0.8,1.3c0.4,0.7,0.9,1.4,1.4,2.3
			c0.5,0.9,1.1,1.8,1.7,2.8c0.6,1,1.2,1.9,1.7,2.8c0.5,0.9,1,1.7,1.4,2.3c0.4,0.7,0.6,1.1,0.8,1.3c0,0,0.2,0.3,0.4,0.8
			c0.2,0.5,0.4,0.9,0.5,1.2c0.1-0.3,0.3-0.7,0.5-1.2c0.2-0.5,0.3-0.7,0.4-0.8c0.1-0.2,0.4-0.6,0.7-1.3c0.4-0.7,0.8-1.4,1.4-2.3
			c0.5-0.9,1.1-1.8,1.7-2.8s1.1-1.9,1.7-2.8c0.5-0.9,1-1.7,1.4-2.3s0.6-1.1,0.7-1.3h8.2l-12.4,19.8l12.9,19.9h-8.3l-7.8-12.7
			c0,0-0.1-0.2-0.2-0.4c-0.1-0.2-0.3-0.5-0.4-0.7c-0.1-0.3-0.3-0.5-0.4-0.8c-0.1-0.3-0.2-0.4-0.3-0.5c-0.1,0.4-0.3,0.7-0.5,1.1
			s-0.3,0.6-0.3,0.7c-0.1,0.2-0.4,0.7-0.8,1.3c-0.4,0.7-0.9,1.5-1.4,2.4s-1.1,1.9-1.7,2.9c-0.6,1.1-1.2,2-1.7,2.9
			c-0.5,0.9-1,1.7-1.4,2.4c-0.4,0.7-0.7,1.1-0.8,1.3h-8.4c0.1-0.2,0.5-0.8,1.2-1.9c0.7-1,1.4-2.3,2.3-3.7s1.9-3,2.9-4.6
			c1.1-1.7,2-3.2,3-4.6s1.7-2.6,2.4-3.7C58.6,326,59,325.4,59.1,325.1z"/>
		<path id="XMLID_104_" class="st0" d="M95.9,305.8h6.7v39.7h-6.7V305.8z"/>
		<path id="XMLID_101_" class="st0" d="M119.4,325.7c0-2.8,0.5-5.4,1.6-7.8c1.1-2.5,2.5-4.6,4.4-6.5c1.8-1.9,4-3.3,6.4-4.4
			c2.5-1.1,5.1-1.6,7.9-1.6c2.8,0,5.4,0.5,7.8,1.6c2.5,1.1,4.6,2.6,6.5,4.4s3.3,4,4.4,6.5c1.1,2.5,1.6,5.1,1.6,7.8
			c0,2.8-0.5,5.4-1.6,7.9c-1.1,2.5-2.5,4.6-4.4,6.4s-4,3.3-6.5,4.3c-2.5,1.1-5.1,1.6-7.8,1.6c-2.8,0-5.4-0.5-7.9-1.6
			c-2.5-1.1-4.6-2.5-6.4-4.3c-1.8-1.8-3.3-4-4.4-6.4S119.4,328.5,119.4,325.7z M126.1,325.7c0,1.9,0.4,3.7,1.1,5.4s1.7,3.2,2.9,4.4
			c1.3,1.3,2.7,2.2,4.4,3c1.7,0.7,3.4,1.1,5.4,1.1c1.9,0,3.6-0.4,5.3-1.1c1.7-0.7,3.1-1.7,4.3-3c1.2-1.3,2.2-2.7,2.9-4.4
			s1.1-3.5,1.1-5.4s-0.4-3.7-1.1-5.4s-1.7-3.2-2.9-4.4c-1.2-1.3-2.7-2.3-4.3-3s-3.4-1.1-5.3-1.1c-1.9,0-3.7,0.4-5.3,1.1
			s-3.1,1.7-4.3,3c-1.2,1.3-2.2,2.8-2.9,4.4S126.1,323.8,126.1,325.7z"/>
		<path id="XMLID_99_" class="st0" d="M176.9,304c0.2,0.3,0.6,0.8,1.2,1.7c0.6,0.9,1.4,2,2.3,3.3c0.9,1.3,2,2.7,3.1,4.3
			c1.1,1.6,2.3,3.2,3.5,4.8c1.2,1.6,2.3,3.2,3.5,4.7c1.1,1.5,2.1,3,3,4.2c0.9,1.3,1.7,2.3,2.3,3.2c0.6,0.9,1,1.4,1.2,1.6
			c0.1-0.1,0.4-0.6,1-1.4c0.6-0.8,1.3-1.8,2.2-3.1c0.9-1.2,1.9-2.6,3-4.2c1.1-1.6,2.3-3.2,3.5-4.8c1.2-1.6,2.4-3.2,3.5-4.8
			c1.1-1.6,2.2-3,3.2-4.4c1-1.3,1.8-2.4,2.4-3.3c0.7-0.9,1.1-1.5,1.3-1.7v41.5h-7.1v-20.3c0-0.3,0-0.6,0.1-0.9
			c0.1-0.3,0.1-0.5,0.1-0.6L197,342.6c-0.2-0.2-0.6-0.8-1.3-1.8c-0.7-1-1.6-2.1-2.5-3.5c-1-1.3-2-2.8-3.1-4.3
			c-1.1-1.5-2.1-3-3.1-4.3c-1-1.3-1.8-2.5-2.5-3.4c-0.7-0.9-1-1.5-1.1-1.6c0,0.1,0,0.3,0.1,0.6c0.1,0.3,0.1,0.6,0.1,0.9v20.3h-6.7
			V304z"/>
	</g>
</g>
<g id="XMLID_75_">
	<text id="XMLID_95_" transform="matrix(1 0 0 1 -1.3516 343.2213)" class="st1 st2 st3">axiom</text>
	<g id="XMLID_91_">
		<polygon id="XMLID_94_" class="st4" points="76.9,288.8 136.7,288.8 218.6,179.7 218.6,98.5 		"/>
		<polygon id="XMLID_93_" class="st5" points="2.9,288.8 25.2,288.8 218.6,29.6 218.6,0.2 		"/>
		<polygon id="XMLID_92_" class="st4" points="159.4,288.8 218.6,288.8 218.6,209.6 		"/>
	</g>
	<g id="XMLID_1_" class="st6">
		<path id="XMLID_88_" class="st7" d="M0.9,324c0-2.7,0.5-5.3,1.6-7.7c1.1-2.4,2.5-4.6,4.3-6.4c1.8-1.8,3.9-3.3,6.3-4.4
			c2.4-1.1,4.9-1.6,7.6-1.6c1.8,0,3.4,0.2,4.8,0.7c1.4,0.4,2.6,1,3.7,1.5c1,0.6,1.8,1.2,2.4,1.8c0.6,0.6,1,1.1,1.1,1.5l0.4-4.5h8.2
			v37.6h-8.6v-2.5c0-0.3,0-0.6,0-0.8c0-0.3,0-0.5,0-0.6c-0.2,0.3-0.6,0.7-1.2,1.3c-0.6,0.6-1.4,1.1-2.4,1.6c-1,0.5-2.2,1-3.6,1.4
			c-1.4,0.4-3,0.6-4.8,0.6c-2.9,0-5.5-0.5-8-1.6c-2.4-1.1-4.5-2.5-6.3-4.2c-1.8-1.8-3.1-3.8-4.1-6.1C1.4,329,0.9,326.6,0.9,324z
			 M9.5,323.5c0,1.7,0.3,3.2,0.8,4.6c0.6,1.4,1.4,2.6,2.4,3.7c1,1,2.3,1.8,3.7,2.4c1.4,0.6,3,0.9,4.7,0.9c1.7,0,3.3-0.3,4.7-0.9
			c1.4-0.6,2.6-1.4,3.7-2.5c1-1.1,1.8-2.3,2.4-3.7c0.6-1.4,0.8-2.9,0.8-4.5c0-1.6-0.3-3.1-0.8-4.5c-0.6-1.4-1.4-2.6-2.4-3.6
			c-1-1-2.3-1.8-3.7-2.4c-1.4-0.6-3-0.9-4.7-0.9c-1.7,0-3.3,0.3-4.7,0.8c-1.4,0.6-2.6,1.4-3.7,2.4c-1,1-1.8,2.2-2.4,3.6
			C9.8,320.4,9.5,321.9,9.5,323.5z"/>
		<path id="XMLID_86_" class="st7" d="M61,322.4c-2-2.9-4.1-5.9-6.4-8.8c-2.2-2.9-4.4-5.8-6.5-8.8h10.4c0.7,1.1,1.4,2.1,2,3
			c0.6,0.9,1.2,1.8,1.9,2.6c0.6,0.8,1.3,1.7,1.9,2.6c0.7,0.9,1.4,1.9,2.1,2.9c0.7-1.1,1.4-2,2-2.9c0.6-0.9,1.3-1.7,1.9-2.6
			c0.6-0.8,1.3-1.7,1.9-2.6c0.6-0.9,1.3-1.9,2-3h9.5c-1.1,1.7-2.2,3.3-3.2,4.6c-1,1.4-2,2.8-3,4.1c-1,1.4-2,2.8-3,4.2
			c-1,1.5-2.1,3.1-3.3,4.9c1,1.5,2.1,3.1,3.4,4.7c1.2,1.7,2.5,3.4,3.8,5.1c1.3,1.7,2.5,3.4,3.8,5.1c1.2,1.7,2.3,3.3,3.3,4.7H74.8
			c-1.6-2.2-3.2-4.3-4.7-6.1c-1.6-1.9-3.1-3.9-4.6-6.1c-1.5,2.2-3,4.3-4.4,6.1c-1.4,1.8-2.8,3.8-4.4,6.1h-9.5
			c2.2-3.4,4.6-6.7,6.9-10C56.6,329.1,58.9,325.8,61,322.4z"/>
		<g id="XMLID_84_" class="st8">
			<rect id="XMLID_85_" x="92.6" y="304.8" class="st5" width="8" height="37"/>
		</g>
		<path id="XMLID_81_" class="st7" d="M108,323.6c0-2.7,0.5-5.3,1.5-7.6c1-2.4,2.5-4.5,4.3-6.2c1.8-1.8,4-3.2,6.4-4.2
			c2.4-1,5.1-1.5,7.8-1.5c2.8,0,5.5,0.5,7.9,1.5c2.4,1,4.5,2.4,6.2,4.2c1.7,1.8,3.1,3.8,4.1,6.2c1,2.4,1.5,4.9,1.5,7.6
			c0,2.7-0.5,5.3-1.5,7.7c-1,2.4-2.3,4.5-4.1,6.3c-1.8,1.8-3.9,3.2-6.3,4.2c-2.4,1-5.1,1.5-8,1.5c-2.8,0-5.4-0.5-7.8-1.4
			c-2.4-0.9-4.5-2.3-6.3-4c-1.8-1.7-3.2-3.8-4.3-6.3C108.5,329.2,108,326.5,108,323.6z M116.4,323.6c0,1.6,0.3,3.1,0.9,4.5
			c0.6,1.4,1.4,2.6,2.4,3.6c1,1,2.2,1.8,3.6,2.4c1.4,0.6,2.9,0.9,4.5,0.9c1.6,0,3.1-0.3,4.5-0.9c1.4-0.6,2.6-1.4,3.6-2.4
			c1-1,1.9-2.2,2.5-3.6c0.6-1.4,0.9-2.9,0.9-4.5c0-1.6-0.3-3.1-0.9-4.5c-0.6-1.4-1.4-2.6-2.5-3.6c-1-1-2.2-1.9-3.6-2.5
			c-1.4-0.6-2.9-0.9-4.5-0.9c-1.6,0-3.1,0.3-4.5,0.9c-1.4,0.6-2.6,1.4-3.6,2.5c-1,1-1.8,2.2-2.4,3.6
			C116.7,320.6,116.4,322,116.4,323.6z"/>
		<path id="XMLID_79_" class="st7" d="M155.8,304.8h7.5c0.1,1.1,0.1,2,0.2,2.8c0.1,0.8,0.1,1.6,0.2,2.3c0.1,0.7,0.1,1.5,0.2,2.2
			c0.1,0.7,0.1,1.5,0.2,2.3c1.4-3.2,3.2-5.7,5.3-7.6c2.2-1.9,5.1-2.9,8.9-3c3.7,0,6.7,0.9,8.9,2.8s3.5,4.3,3.9,7.3
			c0.7-1.5,1.5-2.8,2.4-4.1c0.9-1.2,1.9-2.3,3-3.2c1.1-0.9,2.3-1.6,3.8-2.1c1.4-0.5,3.1-0.8,5-0.8c3.9,0,7,1,9.3,3.1
			c2.3,2.1,3.5,4.8,3.6,8.2v27.2h-8.5v-23.3c-0.1-1.8-0.7-3.4-1.9-4.7c-1.1-1.3-3-2-5.6-2.2c-3.5,0-6.2,1.1-8.1,3.4
			c-1.9,2.3-2.9,5.2-2.9,8.7v18h-8.5v-23.3c-0.1-1.8-0.8-3.4-1.9-4.7c-1.2-1.3-3-2-5.5-2.2c-3.5,0-6.2,1.1-8.1,3.4
			c-1.9,2.3-2.9,5.1-2.9,8.6v18.1h-8.5V304.8z"/>
	</g>
</g>
</svg>
