<?xml version="1.0" encoding="utf-8"?>
<!-- Generator: Adobe Illustrator 19.0.0, SVG Export Plug-In . SVG Version: 6.00 Build 0)  -->
<svg version="1.1" id="Layer_1" xmlns="http://www.w3.org/2000/svg" xmlns:xlink="http://www.w3.org/1999/xlink" x="0px" y="0px"
	 viewBox="-394 144 169.4 273" style="enable-background:new -394 144 169.4 273;" xml:space="preserve">
<style type="text/css">
	.st0{fill:#A5A5A5;}
	.st1{fill:#FFFFFF;}
	.st2{fill:none;stroke:#232323;stroke-miterlimit:10;}
	.st3{fill:none;}
</style>
<g id="XMLID_35_">
	<path id="XMLID_138_" class="st0" d="M-330.8,144.1c1.7,0,3.5,0,5.2,0c0.1,0.1,0.3,0.2,0.4,0.2c1.9,0.1,3.9,0.2,5.8,0.2
		c31.3,0,62.5,0,93.8,0c0.8,0,0.8,0,0.8,0.8c0,23.1,0,46.2,0,69.3c0,10.5-0.3,21.1,0.3,31.6c0.1,2.6-0.1,5.3-0.1,7.9
		c0,2.3-0.2,4.6-0.2,6.8c0,51.7,0,103.4,0,155c0,1,0.1,0.9-0.9,0.9c-8.7,0-17.5,0-26.2,0c-22.9,0-45.9-0.1-68.8,0
		s-45.9-0.4-68.8,0.3c-1,0-1.9,0-2.9,0c-0.9,0-1.2-0.2-1.2-1.2c0-65.3,0-130.7,0-196c0-2.6-0.1-5.3-0.1-7.9c0-0.2-0.1-0.4-0.2-0.6
		c0-1.9,0-3.8,0-5.7c0.1-0.1,0.2-0.3,0.2-0.4c0.1-1.3,0.2-2.5,0.2-3.8c0-18.8,0-37.5,0-56.3c0-0.8,0-0.8,0.8-0.8
		c17.2,0,34.5,0,51.7,0c3.2,0,6.5-0.1,9.7-0.2C-331.1,144.3-331,144.2-330.8,144.1z M-392.7,415.6c35-0.4,67-10.2,95.5-30.4
		c34.2-24.2,56.3-56.8,66.5-97.4c3.2-12.7,4.7-25.7,4.6-38.9c-0.3,0-0.6,0-0.9,0c-39.2,0-78.4,0-117.6,0c-2.1,0-4.3-0.2-6.4,0.2
		c-1.2,0.2-2.4,0.1-3.6,0.1c-1.6-0.1-3.3-0.3-4.9-0.3c-10.9,0-21.7,0-32.6,0c-0.2,0-0.4,0-0.6,0
		C-392.7,304.6-392.7,360.1-392.7,415.6z M-226.1,248c-0.1-16.8-4-32.6-11.8-47.5c-8-15.2-19.2-27.7-33.4-37.3
		c-15.4-10.4-32.6-16.2-51.3-17.3c-1.9-0.1-3.9,0-5.9,0c0,0.1,0,0.3,0,0.4c0,24.6,0,49.2,0,73.7c0,0.2,0,0.4,0,0.5
		c0.1,1.3,0.3,2.6,0.3,3.9c0,1.3-0.3,2.7-0.3,4c0,6.3,0,12.6,0,18.8c0,0.7,0,0.7,0.7,0.7c33.7,0,67.4,0,101.1,0
		C-226.5,248-226.3,248-226.1,248z M-372.1,415.9c48.8,0,97.6,0,146.4,0c0-48.8,0-97.6,0-146.5c-5.2,38.2-21,71.1-48.2,98.3
		C-301.1,394.9-334,410.7-372.1,415.9z M-329.4,145.7c-1.5,0.1-3,0.2-4.4,0.3c-1.6,0.1-3.3,0.2-4.9,0.5c-1.3,0.3-2.6,0.5-3.9,0.7
		c-0.6,0.1-1.2,0.2-1.7,0.4c-0.7,0.2-1.4,0.5-2.2,0.7c-1.1,0.3-2.3,0.6-3.4,1c-1.6,0.6-3.2,1.3-4.8,2c-1.5,0.7-3.1,1.4-4.5,2.2
		c-1.7,1-3.5,2-5.1,3.1c-1.5,1-3,2.1-4.4,3.2c-1.2,1-2.4,2-3.5,3.1c-1.1,1.1-2.3,2.2-3.3,3.3c-1.4,1.6-2.7,3.3-4,4.9
		c-0.8,1-1.5,2-2.1,3.1c-0.7,1.1-1.4,2.2-2.1,3.3c-0.3,0.5-0.6,1.1-0.9,1.7c-0.5,0.9-0.9,1.9-1.4,2.8c-0.3,0.7-0.6,1.3-0.9,2
		c-0.3,0.8-0.6,1.6-0.9,2.3c-0.4,1-0.7,2-1.1,3c-0.3,0.7-0.5,1.5-0.7,2.2c-0.2,0.7-0.5,1.4-0.6,2.1c-0.3,1.1-0.5,2.3-0.7,3.4
		c-0.2,1.2-0.5,2.5-0.7,3.7c-0.4,1.6-0.5,2.9-0.6,4.3c-0.1,1.2,0,2.4,0,3.6c0.1,0,0.3,0,0.4,0c15,0,30,0,45.1,0c0.2,0,0.3,0,0.5,0
		c1.1-0.1,2.3-0.2,3.4-0.2c0.9,0,1.8,0.2,2.8,0.3c3.4,0,6.7,0,10.1,0c0.2,0,0.3,0,0.5,0C-329.4,187.6-329.4,166.7-329.4,145.7z
		 M-312.4,145.3c22.2,3.7,41.4,13.5,57.3,29.4s25.7,35.1,29.4,57.3c0-28.9,0-57.8,0-86.7C-254.6,145.3-283.5,145.3-312.4,145.3z
		 M-392.3,209.5c0,0.3,0,0.5,0,0.7c0,2.1,0.2,4.2,0.6,6.2c0.1,0.6,0.2,1.2,0.4,1.7c0.3,1.2,0.7,2.4,1,3.5c0.4,1,0.8,2.1,1.2,3.1
		c0.3,0.7,0.7,1.4,1,2.1c0.5,0.9,1,1.9,1.5,2.7c0.6,1,1.3,2,2,2.9c0.9,1.1,1.8,2.2,2.8,3.3c1.1,1.1,2.2,2.2,3.4,3.2
		c0.9,0.7,1.8,1.4,2.7,2.1c1,0.7,2,1.3,3,1.9c1,0.5,2,1,3,1.5c0.8,0.4,1.7,0.7,2.5,1c0.9,0.3,1.8,0.6,2.7,0.9
		c0.5,0.2,1.1,0.3,1.7,0.4c1.1,0.2,2.3,0.6,3.4,0.7c1.4,0.2,2.9,0.2,4.3,0.4c0.1,0,0.1,0,0.2,0c0.6,0.1,0.7,0.1,0.7-0.6
		c0-8.5,0-17.1,0-25.6c0-0.2,0-0.4,0-0.6c-0.1-0.8-0.3-1.7-0.2-2.5c0-1.8,0.2-3.5,0.3-5.3c0-1,0-2,0-3c0-0.7,0-0.7-0.7-0.7
		c-12.3,0-24.6,0-36.9,0C-391.8,209.5-392,209.5-392.3,209.5z M-392.7,196c2.8-12.7,8.7-23.7,17.9-32.9c9.2-9.2,20.3-15.1,33-17.8
		c-17,0-34,0-50.9,0C-392.7,162.2-392.7,179.1-392.7,196z M-353.1,247.7c7.4-0.2,13.4-3.2,18-8.8c3.5-4.2,5.2-9.1,5.3-14.7
		c-0.2,0-0.3,0-0.4,0c-5.9,0-11.9,0-17.8,0c-0.2,0-0.6,0-0.6,0.1c-0.2,0.6-0.7,0.4-1,0.3c-0.9-0.4-1.9-0.4-2.8-0.3
		c-0.7,0-0.7,0-0.7,0.7c0,7.4,0,14.7,0,22.1C-353.1,247.2-353.1,247.4-353.1,247.7z M-364.3,248c-14.6-4.6-24-14.1-28.4-28.9
		c0,9.7,0,19.3,0,28.9C-383.2,248-373.8,248-364.3,248z M-329.7,223.4c-0.3-4.7-2.3-8.4-6.2-11.1c-2.2-1.5-4.7-2.3-7.5-2.3
		c0,4.5,0,9,0,13.4C-338.8,223.4-334.3,223.4-329.7,223.4z M-329.4,232c-2.9,7.7-8.2,13-15.8,16c5.3,0,10.5,0,15.8,0
		C-329.4,242.7-329.4,237.4-329.4,232z M-344.2,210c-4.6-0.1-8.5,4.2-8.5,8.5c2.8,0,5.7,0,8.5,0C-344.2,215.6-344.2,212.8-344.2,210
		z M-329.4,217.5c0-2.7,0-5.4,0-8c-2.7,0-5.4,0-8.2,0C-333.9,211.3-331.2,213.9-329.4,217.5z M-344.2,223.4c0-1.4,0-2.7,0-4
		c-1.3,0-2.5,0-3.7,0c-0.3,0-0.4,0.1-0.4,0.4c0,1.1,0,2.2,0,3.2c0,0.3,0.1,0.4,0.4,0.4C-346.7,223.4-345.5,223.4-344.2,223.4z
		 M-349.2,219.4c-0.6,0-1.2,0-1.8,0s-1.2,0-1.8,0c0.2,1.7,1.6,3.6,3.6,3.5C-349.2,221.8-349.2,220.6-349.2,219.4z M-348.9,209.6
		c0,0,0-0.1-0.1-0.1c-1.3,0-2.6,0-3.8,0c-0.3,0-0.4,0.2-0.4,0.5c0,0.9,0,1.8,0,2.7c0,0.3,0,0.7,0,1
		C-352,211.9-350.6,210.6-348.9,209.6z M-352.4,223.4c-0.3-0.3-0.5-0.5-0.7-0.7c0,0.2,0,0.4,0,0.7
		C-352.8,223.4-352.6,223.4-352.4,223.4z"/>
	<path id="XMLID_137_" class="st1" d="M-393.9,211.5c0.1,0.2,0.2,0.4,0.2,0.6c0.1,2.6,0.1,5.3,0.1,7.9c0,65.3,0,130.7,0,196
		c0,0.9,0.2,1.2,1.2,1.2s1.9,0,2.9,0c22.9-0.7,45.9-0.2,68.8-0.3c22.9-0.1,45.9,0,68.8,0c8.7,0,17.5,0,26.2,0c1,0,0.9,0.1,0.9-0.9
		c0-51.7,0-103.4,0-155c0-2.3,0.1-4.6,0.2-6.8c0.1-2.6,0.2-5.3,0.1-7.9c-0.5-10.5-0.2-21.1-0.3-31.6c-0.1-23.1,0-46.2,0-69.3
		c0-0.8,0-0.8-0.8-0.8c-31.3,0-62.5,0-93.8,0c-1.9,0-3.9-0.1-5.8-0.2c-0.1,0-0.3-0.1-0.4-0.2c33.7,0,67.5,0,101.2,0
		c0,91,0,182,0,273.1c-56.5,0-113,0-169.5,0C-393.9,348.6-393.9,280-393.9,211.5z"/>
	<path id="XMLID_136_" class="st1" d="M-330.8,144.1c-0.2,0.1-0.3,0.2-0.5,0.2c-3.2,0.1-6.5,0.2-9.7,0.2c-17.2,0-34.5,0-51.7,0
		c-0.8,0-0.8,0-0.8,0.8c0,18.8,0,37.5,0,56.3c0,1.3-0.1,2.5-0.2,3.8c0,0.1-0.1,0.3-0.2,0.4c0-20.5,0-41.1,0-61.6
		C-372.9,144.1-351.8,144.1-330.8,144.1z"/>
</g>
<circle id="XMLID_15_" class="st2" cx="-361.5" cy="384.5" r="32.5"/>
<circle id="XMLID_8_" class="st2" cx="-296.5" cy="280.5" r="32.5"/>
<circle id="XMLID_9_" class="st2" cx="-296.5" cy="384.5" r="32.5"/>
<circle id="XMLID_1_" class="st2" cx="-309.2" cy="332.6" r="20.1"/>
<circle id="XMLID_4_" class="st2" cx="-284.2" cy="364.6" r="20.1"/>
<circle id="XMLID_3_" class="st2" cx="-284.2" cy="300.6" r="20.1"/>
<circle id="XMLID_2_" class="st2" cx="-277.1" cy="332.7" r="12.2"/>
<circle id="XMLID_6_" class="st2" cx="-361.7" cy="176.3" r="32.3"/>
<rect x="-392.7" y="307" class="st3" width="128.7" height="41"/>
</svg>
