<?xml version="1.0" encoding="utf-8"?>
<!-- Generator: Adobe Illustrator 19.0.0, SVG Export Plug-In . SVG Version: 6.00 Build 0)  -->
<svg version="1.1" id="Layer_1" xmlns="http://www.w3.org/2000/svg" xmlns:xlink="http://www.w3.org/1999/xlink" x="0px" y="0px"
	 viewBox="415 144 130 273" style="enable-background:new 415 144 130 273;" xml:space="preserve">
<style type="text/css">
	.st0{fill:#E56E6E;}
</style>
<path id="XMLID_17_" class="st0" d="M545,364L545,364v53h-97.5c-17.9,0-32.5-14.6-32.5-32.5V144h32.2c18,0,32.8,14.8,32.8,32.8V248
	h65v49.5v2.1c0,11.3-9,20.9-20.3,21c-4.2,0-8-1.2-11.3-3.2c-0.1,0-0.9-0.5-1.3-0.8c-3.4-2.6-7.6-4.2-12.2-4.2
	c-10.9,0-20,8.7-20,19.5v0.1c0,0.1-0.1,0.3-0.1,0.4c0,11,8.9,20,20,20c3.9,0,7.6-1.1,10.7-3.1c0.7-0.4,1.2-0.8,1.9-1.3
	c0.4-0.4,0.9-0.7,1.4-1c0.6-0.3,1.5-0.8,2-1c2.6-1.2,5.4-1.9,8.5-1.9C535.6,344,544.6,353,545,364z"/>
</svg>
